<?xml version="1.0" encoding="UTF-8"?><svg id="Layer_1" xmlns="http://www.w3.org/2000/svg" viewBox="0 0 1232.54 654.5"><defs><style>.cls-1{fill:#231f20;}</style></defs><path class="cls-1" d="M346.56,317.04H29.04l33.51-33.51h270.13l36.39-36.39-119.98-119.98-134.1,134.1h-29.62L243.46,103.17h192.31l38.64,38.64L616.21,0l141.8,141.8,38.64-38.64h192.31l158.1,158.1h-29.62l-134.1-134.1-119.98,119.98,36.39,36.39h269.82l33.51,33.51h-317.2L616.21,47.39l-269.65,269.65ZM0,545.89h159.93v-46.88H52.81v-30.56h75.18v-46.03H52.81v-28.02h107.11v-46.88H0v198.37ZM340.3,347.53l-44.47,137.56-45.51-137.56h-56.6l69.28,198.37h65.55l68.06-198.37h-56.3ZM570.9,545.89h-99.48c-24.37,0-40.12-15.08-40.12-38.42v-126.33c0-21.36,12.97-33.61,35.6-33.61h110.22c23.06,0,34.75,14.45,34.75,42.94v114.75c0,19.72-14.36,40.68-40.96,40.68ZM559.61,396.1h-76.34v101.22h76.34v-101.22ZM663.91,347.53v198.37h161.91v-48.57h-109.09v-149.79h-52.81ZM932.04,485.09l-45.51-137.56h-56.6l69.28,198.37h65.55l68.06-198.37h-56.3l-44.48,137.56ZM1232.54,394.4v-46.88h-159.93v198.37h159.93v-46.88h-107.12v-30.56h75.18v-46.03h-75.18v-28.02h107.12ZM289.78,632.3h23.02v-6.96h-23.02v-12.8h24.28v-7.85h-33.75v49.37h33.97v-7.85h-24.5v-13.91ZM375.27,604.69h-11.03l-6.59,11.03c-1.63,2.74-2.15,3.7-3.78,6.81l-.96,1.78h-.15c-2.59-5.03-2.89-5.55-4.66-8.58l-6.66-11.03h-11.1l15.02,23.9-16.21,25.46h11.25l7.18-11.84c1.78-2.96,2.74-4.74,3.63-6.36l1.63-3.11h.15l1.04,1.92c2,3.77,2.52,4.74,4.14,7.55l7.11,11.84h10.95l-15.76-25.46,14.8-23.9ZM389.41,612.98h14.28v41.08h9.47v-41.08h14.58v-8.29h-38.34v8.29ZM453.37,632.3h23.02v-6.96h-23.02v-12.8h24.27v-7.85h-33.75v49.37h33.97v-7.85h-24.5v-13.91ZM527.31,633.33v.37c5.62.3,8.44,3.63,8.36,9.62v10.73h-9.55v-8.88c.15-5.4-2.15-7.7-7.4-7.55h-13.32v16.43h-9.47v-49.37h24.28c11.92,0,15.99,3.7,15.99,14.73,0,9.84-1.7,12.51-8.88,13.91ZM526.57,621.12c0-6.96-1.18-8.29-7.25-8.29h-13.92v16.73h13.25c2.96,0,4.88-.44,5.99-1.48,1.55-1.26,1.92-2.74,1.92-6.96ZM554.19,654.06h9.47v-49.37h-9.47v49.37ZM625.31,617.2c.37,2.22.52,5.11.52,11.69,0,11.84-.44,15.1-2.52,18.8-1.78,3.11-5.03,5.25-9.47,6.14-2,.44-5.92.67-10.73.67-7.33,0-11.03-.59-14.06-2.22-3.92-2.15-5.92-5.33-6.81-10.8-.37-2.29-.44-4.66-.44-10.81,0-12.73.52-16.36,2.81-19.98,1.85-2.89,5.11-4.96,9.18-5.77,1.92-.44,5.99-.66,10.44-.66,7.03,0,10.29.44,13.17,1.63,4.44,2,6.96,5.55,7.92,11.32ZM616.21,629.04c0-7.77,0-7.99-.37-10.29-.44-2.89-1.63-4.74-3.48-5.55-1.63-.66-3.48-.81-9.03-.81-5.99,0-7.99.37-9.55,1.92-1.63,1.55-2.29,4.15-2.37,9.03v8.07c0,8.66.37,10.88,2.15,12.95,1.41,1.63,3.63,2,11.18,2s9.25-.81,10.51-4.37c.89-2.44.96-3.7.96-12.95ZM675.36,633.33v.37c5.63.3,8.44,3.63,8.36,9.62v10.73h-9.55v-8.88c.15-5.4-2.15-7.7-7.4-7.55h-13.32v16.43h-9.47v-49.37h24.27c11.92,0,15.99,3.7,15.99,14.73,0,9.84-1.7,12.51-8.88,13.91ZM674.62,621.12c0-6.96-1.18-8.29-7.25-8.29h-13.91v16.73h13.25c2.96,0,4.89-.44,6-1.48,1.55-1.26,1.92-2.74,1.92-6.96ZM736.42,627.93c-2.37-1.7-5.18-2.22-13.47-2.74-7.7-.45-8.14-.45-9.4-.81-2.37-.74-3.26-2.37-3.26-5.92,0-5.63,1.78-6.74,10.73-6.74,7.62,0,9.18,1.11,9.18,6.51v.89h9.1v-1.78c0-4.29-.89-7.25-2.81-9.4-2.44-2.74-6.44-3.7-15.69-3.7s-13.03.66-16.06,2.96c-2.66,1.92-3.92,5.55-3.92,11.4,0,6.81,1.55,10.36,5.48,12.29,2.52,1.18,4.29,1.48,12.73,2q8.22.52,9.4.96c2,.66,2.74,2.22,2.74,5.48s-.52,5.33-1.78,6.22c-1.41,1.11-2.96,1.33-8.51,1.33-7.7,0-8.88-.22-10.07-2.22-.81-1.26-1.03-2.52-1.03-6.22h-9.1c.07,3.92.15,5.4.59,7.55.52,2.59,2.07,4.96,3.92,6.07,3.26,1.92,6.29,2.44,15.25,2.44,10.29,0,14.06-.81,17.02-3.7,2.15-2.15,3.04-5.48,3.04-11.62s-1.04-9.18-4.07-11.25ZM787.8,654.06h9.47v-49.37h-9.47v49.37ZM853.45,633.11c0,4.59,0,4.96.22,9.55l.07,3.18h-.3l-1.92-4.07c-3.33-7.11-3.92-8.37-5.77-12.06l-12.88-25.02h-15.84v49.37h9.33v-28.35c0-4.59,0-4.96-.22-9.7l-.07-3.18h.3l1.63,3.48c2.96,6.81,3.92,8.81,4.81,10.66l14.14,27.09h15.91v-49.37h-9.4v28.42ZM912.97,638.51c0,6.66-1.63,7.85-11.25,7.85-10.58,0-11.25-1.03-11.25-17.24q0-6.74.07-7.99c.15-3.77.67-5.55,1.92-6.81,1.48-1.41,4.22-1.92,10.51-1.92,8.44,0,9.32.81,9.47,8.73h9.4c-.07-3.4-.15-4.88-.29-6.07-.44-3.63-1.7-6.22-3.78-7.99-2.52-2.15-5.62-2.81-13.47-2.81-11.99,0-15.69.81-19.39,4.37-3.33,3.18-4.29,6.96-4.29,17.24,0,4.52.15,10.58.37,13.4.52,7.03,2.37,10.73,6.66,13.03,3.26,1.85,5.55,2.22,14.06,2.22,4.37,0,8.73-.22,10.29-.44,2.74-.52,5.33-1.78,6.88-3.26,2.67-2.52,3.4-5.25,3.4-12.66v-1.7h-9.4c.07.96.07,1.63.07,2.07ZM939.03,654.06h8.22v-9.03h-8.22v9.03Z"/></svg>